<mxfile host="Electron" modified="2023-04-15T09:55:18.447Z" agent="Mozilla/5.0 (Windows NT 10.0; Win64; x64) AppleWebKit/537.36 (KHTML, like Gecko) draw.io/21.1.2 Chrome/106.0.5249.199 Electron/21.4.3 Safari/537.36" etag="5j7APe7M3SJ_PsOw3GpZ" version="21.1.2" type="device">
  <diagram name="Страница 1" id="Nm9DoTLBU7HrxLToe_yr">
    <mxGraphModel dx="1098" dy="828" grid="1" gridSize="10" guides="1" tooltips="1" connect="1" arrows="1" fold="1" page="1" pageScale="1" pageWidth="827" pageHeight="1169" math="0" shadow="0">
      <root>
        <mxCell id="0" />
        <mxCell id="1" parent="0" />
        <mxCell id="7UohB-079pg0cIVBK1eG-25" value="Блок-схема алгоритма метода, возвращающего&amp;nbsp;массив из элементов строкового массива array&lt;span style=&quot;background-color: initial;&quot;&gt;, длина которых меньше или равна заданной len&lt;/span&gt;&lt;br&gt;&lt;div style=&quot;color: rgb(212, 212, 212); background-color: rgb(30, 30, 30); font-family: Consolas, &amp;quot;Courier New&amp;quot;, monospace; font-size: 14px; line-height: 19px;&quot;&gt;&lt;div style=&quot;line-height: 19px;&quot;&gt;GetArraySpecElements(&lt;span style=&quot;color: #569cd6;&quot;&gt;string&lt;/span&gt;[] &lt;span style=&quot;color: #9cdcfe;&quot;&gt;array&lt;/span&gt;, &lt;span style=&quot;color: #569cd6;&quot;&gt;int&lt;/span&gt; &lt;span style=&quot;color: #9cdcfe;&quot;&gt;len&lt;/span&gt;)&lt;/div&gt;&lt;/div&gt;" style="text;html=1;strokeColor=none;fillColor=none;align=center;verticalAlign=middle;whiteSpace=wrap;rounded=0;" parent="1" vertex="1">
          <mxGeometry x="187" y="54" width="425" height="80" as="geometry" />
        </mxCell>
        <mxCell id="7UohB-079pg0cIVBK1eG-51" style="edgeStyle=orthogonalEdgeStyle;rounded=0;orthogonalLoop=1;jettySize=auto;html=1;entryX=0.5;entryY=0;entryDx=0;entryDy=0;" parent="1" source="7UohB-079pg0cIVBK1eG-26" target="7UohB-079pg0cIVBK1eG-49" edge="1">
          <mxGeometry relative="1" as="geometry" />
        </mxCell>
        <mxCell id="7UohB-079pg0cIVBK1eG-26" value="&lt;font style=&quot;vertical-align: inherit;&quot;&gt;&lt;font style=&quot;vertical-align: inherit;&quot;&gt;Start&lt;/font&gt;&lt;/font&gt;" style="rounded=1;whiteSpace=wrap;html=1;" parent="1" vertex="1">
          <mxGeometry x="330" y="155" width="120" height="40" as="geometry" />
        </mxCell>
        <mxCell id="7UohB-079pg0cIVBK1eG-28" style="edgeStyle=orthogonalEdgeStyle;rounded=0;orthogonalLoop=1;jettySize=auto;html=1;" parent="1" edge="1">
          <mxGeometry relative="1" as="geometry">
            <mxPoint x="389" y="516" as="sourcePoint" />
            <mxPoint x="389" y="606" as="targetPoint" />
            <Array as="points">
              <mxPoint x="389" y="596" />
            </Array>
          </mxGeometry>
        </mxCell>
        <mxCell id="7UohB-079pg0cIVBK1eG-29" value="True" style="edgeLabel;html=1;align=center;verticalAlign=middle;resizable=0;points=[];" parent="7UohB-079pg0cIVBK1eG-28" connectable="0" vertex="1">
          <mxGeometry x="-0.2485" relative="1" as="geometry">
            <mxPoint as="offset" />
          </mxGeometry>
        </mxCell>
        <mxCell id="7UohB-079pg0cIVBK1eG-30" style="edgeStyle=orthogonalEdgeStyle;rounded=0;orthogonalLoop=1;jettySize=auto;html=1;" parent="1" source="7UohB-079pg0cIVBK1eG-31" target="7UohB-079pg0cIVBK1eG-47" edge="1">
          <mxGeometry relative="1" as="geometry">
            <mxPoint x="460" y="995" as="targetPoint" />
            <Array as="points">
              <mxPoint x="560" y="475" />
              <mxPoint x="560" y="995" />
            </Array>
          </mxGeometry>
        </mxCell>
        <mxCell id="7UohB-079pg0cIVBK1eG-31" value="&lt;font style=&quot;vertical-align: inherit;&quot;&gt;&lt;font style=&quot;vertical-align: inherit;&quot;&gt;i&amp;lt;=array.Length-1&lt;/font&gt;&lt;/font&gt;" style="rhombus;whiteSpace=wrap;html=1;" parent="1" vertex="1">
          <mxGeometry x="324" y="435" width="130" height="80" as="geometry" />
        </mxCell>
        <mxCell id="7UohB-079pg0cIVBK1eG-32" style="edgeStyle=orthogonalEdgeStyle;rounded=0;orthogonalLoop=1;jettySize=auto;html=1;entryX=0.5;entryY=0;entryDx=0;entryDy=0;" parent="1" source="7UohB-079pg0cIVBK1eG-33" target="7UohB-079pg0cIVBK1eG-31" edge="1">
          <mxGeometry relative="1" as="geometry" />
        </mxCell>
        <mxCell id="7UohB-079pg0cIVBK1eG-33" value="&lt;font style=&quot;vertical-align: inherit;&quot;&gt;&lt;font style=&quot;vertical-align: inherit;&quot;&gt;&lt;font style=&quot;vertical-align: inherit;&quot;&gt;&lt;font style=&quot;vertical-align: inherit;&quot;&gt;i:=0&lt;br&gt;index:=0&lt;br&gt;&lt;/font&gt;&lt;/font&gt;&lt;/font&gt;&lt;/font&gt;" style="rounded=0;whiteSpace=wrap;html=1;" parent="1" vertex="1">
          <mxGeometry x="330" y="335" width="120" height="50" as="geometry" />
        </mxCell>
        <mxCell id="7UohB-079pg0cIVBK1eG-34" value="&lt;font style=&quot;vertical-align: inherit;&quot;&gt;&lt;font style=&quot;vertical-align: inherit;&quot;&gt;Еnd&lt;/font&gt;&lt;/font&gt;" style="rounded=1;whiteSpace=wrap;html=1;" parent="1" vertex="1">
          <mxGeometry x="325" y="1075" width="120" height="60" as="geometry" />
        </mxCell>
        <mxCell id="7UohB-079pg0cIVBK1eG-35" value="" style="rhombus;whiteSpace=wrap;html=1;" parent="1" vertex="1">
          <mxGeometry x="300" y="605" width="180" height="90" as="geometry" />
        </mxCell>
        <mxCell id="7UohB-079pg0cIVBK1eG-36" style="edgeStyle=orthogonalEdgeStyle;rounded=0;orthogonalLoop=1;jettySize=auto;html=1;" parent="1" source="7UohB-079pg0cIVBK1eG-37" target="7UohB-079pg0cIVBK1eG-44" edge="1">
          <mxGeometry relative="1" as="geometry">
            <mxPoint x="560" y="885" as="targetPoint" />
            <Array as="points">
              <mxPoint x="530" y="650" />
              <mxPoint x="530" y="885" />
            </Array>
          </mxGeometry>
        </mxCell>
        <mxCell id="7UohB-079pg0cIVBK1eG-37" value="array[i].Length&amp;lt;=len" style="text;html=1;strokeColor=none;fillColor=none;align=center;verticalAlign=middle;whiteSpace=wrap;rounded=0;" parent="1" vertex="1">
          <mxGeometry x="290" y="635" width="190" height="30" as="geometry" />
        </mxCell>
        <mxCell id="7UohB-079pg0cIVBK1eG-38" style="edgeStyle=orthogonalEdgeStyle;rounded=0;orthogonalLoop=1;jettySize=auto;html=1;entryX=0.5;entryY=0;entryDx=0;entryDy=0;" parent="1" source="7UohB-079pg0cIVBK1eG-39" target="7UohB-079pg0cIVBK1eG-44" edge="1">
          <mxGeometry relative="1" as="geometry" />
        </mxCell>
        <mxCell id="7UohB-079pg0cIVBK1eG-39" value="" style="rounded=0;whiteSpace=wrap;html=1;" parent="1" vertex="1">
          <mxGeometry x="330" y="741" width="130" height="60" as="geometry" />
        </mxCell>
        <mxCell id="7UohB-079pg0cIVBK1eG-40" value="" style="endArrow=classic;html=1;rounded=0;exitX=0.5;exitY=1;exitDx=0;exitDy=0;" parent="1" source="7UohB-079pg0cIVBK1eG-35" edge="1">
          <mxGeometry width="50" height="50" relative="1" as="geometry">
            <mxPoint x="430" y="635" as="sourcePoint" />
            <mxPoint x="390" y="745" as="targetPoint" />
          </mxGeometry>
        </mxCell>
        <mxCell id="7UohB-079pg0cIVBK1eG-41" value="True" style="edgeLabel;html=1;align=center;verticalAlign=middle;resizable=0;points=[];" parent="1" connectable="0" vertex="1">
          <mxGeometry x="390" y="710" as="geometry" />
        </mxCell>
        <mxCell id="7UohB-079pg0cIVBK1eG-42" value="result[index]:=array[i]&lt;br&gt;index:=index+1" style="text;html=1;strokeColor=none;fillColor=none;align=center;verticalAlign=middle;whiteSpace=wrap;rounded=0;" parent="1" vertex="1">
          <mxGeometry x="320" y="756" width="140" height="30" as="geometry" />
        </mxCell>
        <mxCell id="7UohB-079pg0cIVBK1eG-43" style="edgeStyle=orthogonalEdgeStyle;rounded=0;orthogonalLoop=1;jettySize=auto;html=1;" parent="1" source="7UohB-079pg0cIVBK1eG-44" edge="1">
          <mxGeometry relative="1" as="geometry">
            <mxPoint x="390" y="415" as="targetPoint" />
            <Array as="points">
              <mxPoint x="280" y="875" />
              <mxPoint x="280" y="415" />
            </Array>
          </mxGeometry>
        </mxCell>
        <mxCell id="7UohB-079pg0cIVBK1eG-44" value="i:=i+1" style="rounded=0;whiteSpace=wrap;html=1;" parent="1" vertex="1">
          <mxGeometry x="332" y="845" width="126" height="60" as="geometry" />
        </mxCell>
        <mxCell id="7UohB-079pg0cIVBK1eG-45" value="False" style="edgeLabel;html=1;align=center;verticalAlign=middle;resizable=0;points=[];" parent="1" connectable="0" vertex="1">
          <mxGeometry x="510" y="649.9966666666668" as="geometry">
            <mxPoint x="-10" y="-2" as="offset" />
          </mxGeometry>
        </mxCell>
        <mxCell id="7UohB-079pg0cIVBK1eG-46" style="edgeStyle=orthogonalEdgeStyle;rounded=0;orthogonalLoop=1;jettySize=auto;html=1;entryX=0.5;entryY=0;entryDx=0;entryDy=0;" parent="1" source="7UohB-079pg0cIVBK1eG-47" target="7UohB-079pg0cIVBK1eG-34" edge="1">
          <mxGeometry relative="1" as="geometry">
            <Array as="points">
              <mxPoint x="385" y="1065" />
            </Array>
          </mxGeometry>
        </mxCell>
        <mxCell id="7UohB-079pg0cIVBK1eG-47" value="GetArraySpecElements:=result" style="rounded=0;whiteSpace=wrap;html=1;" parent="1" vertex="1">
          <mxGeometry x="260" y="955" width="250" height="80" as="geometry" />
        </mxCell>
        <mxCell id="7UohB-079pg0cIVBK1eG-48" value="False" style="edgeLabel;html=1;align=center;verticalAlign=middle;resizable=0;points=[];" parent="1" connectable="0" vertex="1">
          <mxGeometry x="500" y="474.9966666666668" as="geometry">
            <mxPoint x="-10" y="-2" as="offset" />
          </mxGeometry>
        </mxCell>
        <mxCell id="7UohB-079pg0cIVBK1eG-52" style="edgeStyle=orthogonalEdgeStyle;rounded=0;orthogonalLoop=1;jettySize=auto;html=1;entryX=0.5;entryY=0;entryDx=0;entryDy=0;" parent="1" source="7UohB-079pg0cIVBK1eG-49" target="7UohB-079pg0cIVBK1eG-33" edge="1">
          <mxGeometry relative="1" as="geometry" />
        </mxCell>
        <mxCell id="7UohB-079pg0cIVBK1eG-49" value="n:=GetNumberSpecElements(array, len)&lt;br&gt;&lt;br&gt;result = string[0..n]" style="rounded=0;whiteSpace=wrap;html=1;" parent="1" vertex="1">
          <mxGeometry x="280" y="225" width="220" height="60" as="geometry" />
        </mxCell>
      </root>
    </mxGraphModel>
  </diagram>
</mxfile>
